<svg width="96" height="96" viewBox="0 0 96 96" fill="none" xmlns="http://www.w3.org/2000/svg">
<rect width="96" height="96" rx="24" fill="#FFF2F4"/>
<path d="M65.7048 20.9722C66.2173 20.9722 66.6366 20.5529 66.6366 20.0404V19.1086C66.6366 18.5961 66.2173 18.1768 65.7048 18.1768C65.1923 18.1768 64.7729 18.5961 64.7729 19.1086V20.0404C64.7729 20.5529 65.1923 20.9722 65.7048 20.9722Z" fill="#1B1B3A"/>
<path d="M64.7729 34.0174C64.7729 34.5299 65.1923 34.9493 65.7048 34.9493C66.2173 34.9493 66.6366 34.5299 66.6366 34.0174V33.0856C66.6366 32.5731 66.2173 32.1538 65.7048 32.1538C65.1923 32.1538 64.7729 32.5731 64.7729 33.0856V34.0174Z" fill="#1B1B3A"/>
<path d="M73.1593 27.495C73.6718 27.495 74.0911 27.0757 74.0911 26.5632C74.0911 26.0507 73.6718 25.6313 73.1593 25.6313H72.2275C71.715 25.6313 71.2957 26.0507 71.2957 26.5632C71.2957 27.0757 71.715 27.495 72.2275 27.495H73.1593Z" fill="#1B1B3A"/>
<path d="M58.2502 25.6313C57.7377 25.6313 57.3184 26.0507 57.3184 26.5632C57.3184 27.0757 57.7377 27.495 58.2502 27.495H59.182C59.6945 27.495 60.1138 27.0757 60.1138 26.5632C60.1138 26.0507 59.6945 25.6313 59.182 25.6313H58.2502Z" fill="#1B1B3A"/>
<path d="M70.3171 20.6462L69.6648 21.2985C69.2921 21.6712 69.2921 22.2303 69.6648 22.6031C69.8512 22.7894 70.0841 22.8826 70.3171 22.8826C70.55 22.8826 70.783 22.7894 70.9693 22.6031L71.6216 21.9508C71.9943 21.5781 71.9943 21.019 71.6216 20.6462C71.2489 20.2735 70.6898 20.2735 70.3171 20.6462Z" fill="#1B1B3A"/>
<path d="M60.4401 30.5232L59.7878 31.1755C59.4151 31.5482 59.4151 32.1073 59.7878 32.48C59.9742 32.6664 60.2072 32.7596 60.4401 32.7596C60.6731 32.7596 60.906 32.6664 61.0924 32.48L61.7447 31.8277C62.1174 31.455 62.1174 30.8959 61.7447 30.5232C61.3719 30.1505 60.8128 30.1505 60.4401 30.5232Z" fill="#1B1B3A"/>
<path d="M69.6648 30.5232C69.2921 30.8959 69.2921 31.455 69.6648 31.8277L70.3171 32.48C70.5034 32.6664 70.7364 32.7596 70.9693 32.7596C71.2023 32.7596 71.4353 32.6664 71.6216 32.48C71.9943 32.1073 71.9943 31.5482 71.6216 31.1755L70.9693 30.5232C70.5966 30.1505 70.0375 30.1505 69.6648 30.5232Z" fill="#1B1B3A"/>
<path d="M61.7447 21.2985L61.0924 20.6462C60.7197 20.2735 60.1606 20.2735 59.7878 20.6462C59.4151 21.019 59.4151 21.5781 59.7878 21.9508L60.4401 22.6031C60.6265 22.7894 60.8594 22.8826 61.0924 22.8826C61.3253 22.8826 61.5583 22.7894 61.7447 22.6031C62.1174 22.2303 62.1174 21.6712 61.7447 21.2985Z" fill="#1B1B3A"/>
<path d="M64.7729 26.5632C64.7729 27.0757 65.1923 27.495 65.7048 27.495H68.5002C69.0127 27.495 69.432 27.0757 69.432 26.5632C69.432 26.0507 69.0127 25.6314 68.5002 25.6314H66.6366V23.7678C66.6366 23.2553 66.2173 22.8359 65.7048 22.8359C65.1923 22.8359 64.7729 23.2553 64.7729 23.7678V26.5632Z" fill="#1B1B3A"/>
<path d="M76.8864 58.7107H74.091V50.3243C74.091 48.7868 72.833 47.5289 71.2955 47.5289H61.9773C61.9307 46.8766 61.6978 46.2243 61.2785 45.7118L57.3182 40.8198C56.7592 40.1675 56.0137 39.7482 55.1285 39.655C54.6626 39.6084 54.1967 39.655 53.7773 39.8414C54.1501 40.3539 54.4296 40.9129 54.616 41.5186C54.7092 41.5186 54.8489 41.472 54.9421 41.5186C55.3148 41.5652 55.641 41.705 55.8273 41.9845L59.7876 46.8766C60.0205 47.1561 60.1137 47.5289 60.0671 47.9016C60.0205 48.2743 59.8342 48.6004 59.508 48.8334L54.4296 52.7004C54.1967 52.8868 54.0569 53.1664 54.0569 53.4459V62.2982C53.8705 62.205 53.6842 62.1118 53.4512 62.0652C51.8671 61.5993 50.2364 62.3914 49.5376 63.7891H46.3694C45.6705 62.3914 44.0398 61.5993 42.4557 62.0652C42.2694 62.1118 42.083 62.205 41.8967 62.2982V53.4925C41.8967 53.2129 41.7569 52.9334 41.5239 52.747L36.4455 48.88C36.166 48.647 35.933 48.3209 35.8864 47.9482C35.8398 47.5754 35.933 47.2027 36.166 46.9232L40.1262 42.0311C40.3592 41.7516 40.6853 41.5652 41.0114 41.5652C41.1046 41.5652 41.1978 41.5652 41.291 41.5652C41.5239 40.9595 41.8035 40.4004 42.1762 39.8414C41.7569 39.7016 41.291 39.655 40.8251 39.7016C39.9398 39.7948 39.1944 40.2141 38.6353 40.8664L34.6751 45.7584C34.2557 46.2709 34.0228 46.9232 33.9762 47.5754H24.7046C23.1671 47.5754 21.9092 48.8334 21.9092 50.3709V58.7573H19.1137C18.6012 58.7573 18.1819 59.1766 18.1819 59.6891V72.7345C18.1819 73.7595 19.0205 74.5982 20.0455 74.5982H25.6364C26.6614 74.5982 27.5001 73.7595 27.5001 72.7345V71.3368H41.6637L42.8285 75.4368C43.2478 76.8811 44.5989 77.8595 46.0432 77.8595C46.3694 77.8595 46.6489 77.8129 46.9751 77.7198C47.3478 77.6266 47.6739 77.4402 48.0001 77.2073C48.3262 77.4402 48.6523 77.58 49.0251 77.7198C49.3512 77.8129 49.6307 77.8595 49.9569 77.8595C51.4012 77.8595 52.7523 76.9277 53.1717 75.4368L54.3364 71.3368H68.5001V72.7345C68.5001 73.7595 69.3387 74.5982 70.3637 74.5982H75.9546C76.9796 74.5982 77.8182 73.7595 77.8182 72.7345V59.6425C77.8182 59.13 77.3989 58.7107 76.8864 58.7107ZM20.0455 72.6879V60.5743H25.6364V72.6879H20.0455ZM26.5682 58.7107H23.7728V50.3243C23.7728 49.8118 24.1921 49.3925 24.7046 49.3925H34.4887C34.7217 49.7652 35.0012 50.0914 35.3273 50.3709L40.0796 53.9584V63.8357H27.5001V59.6425C27.5001 59.13 27.0807 58.7107 26.5682 58.7107ZM27.5001 69.4266V65.6993H40.1262C40.1262 65.8857 40.1728 66.0254 40.2194 66.2118L41.1512 69.4266H27.5001ZM47.3478 75.2039C47.1614 75.53 46.8353 75.8095 46.4626 75.9027C45.6705 76.1357 44.8785 75.6698 44.6455 74.9243L41.9898 65.6993C41.8967 65.3266 41.9432 64.9539 42.1296 64.5811C42.316 64.255 42.6421 63.9754 43.0148 63.8823C43.1546 63.8357 43.2944 63.8357 43.4342 63.8357C44.0864 63.8357 44.6455 64.255 44.8319 64.9073L47.4876 74.0857C47.5807 74.4584 47.5342 74.8311 47.3478 75.2039ZM48.0001 69.1936L47.0217 65.6993H49.0251L48.0001 69.1936ZM54.0103 65.6993L51.3546 74.8777C51.1217 75.6698 50.3296 76.0891 49.5376 75.8561C49.3978 75.8095 49.258 75.7629 49.1648 75.6698C49.4444 74.9709 49.491 74.2254 49.258 73.5266L48.9785 72.5016L51.1683 64.8607C51.3546 64.2084 51.9603 63.7891 52.566 63.7891C52.7058 63.7891 52.8455 63.7891 52.9853 63.8357C53.358 63.9289 53.6842 64.2084 53.8705 64.5345C54.0569 64.9539 54.1035 65.3266 54.0103 65.6993ZM68.5001 69.4266H54.8489L55.7807 66.2118C55.8273 66.0254 55.8739 65.8857 55.8739 65.6993H68.5001V69.4266ZM69.4319 58.7107C68.9194 58.7107 68.5001 59.13 68.5001 59.6425V63.8357H55.9671V53.9584L60.6728 50.3709C61.0455 50.0914 61.3251 49.7652 61.5114 49.3925H71.2955C71.808 49.3925 72.2273 49.8118 72.2273 50.3243V58.7107H69.4319ZM70.3637 72.6879V60.5743H75.9546V72.6879H70.3637Z" fill="#1B1B3A"/>
<path d="M53.125 46.5972V43.8018C53.125 40.9597 50.842 38.6768 48 38.6768C45.158 38.6768 42.875 40.9597 42.875 43.8018V46.5972C42.875 49.4393 45.158 51.7222 48 51.7222C50.842 51.7222 53.125 49.4393 53.125 46.5972ZM51.2614 46.5972C51.2614 48.4143 49.817 49.8586 48 49.8586C46.183 49.8586 44.7386 48.4143 44.7386 46.5972V43.8018C44.7386 41.9847 46.183 40.5404 48 40.5404C49.817 40.5404 51.2614 41.9847 51.2614 43.8018V46.5972Z" fill="#1B1B3A"/>
<path d="M55.8274 46.5507L54.9888 45.3394V46.5973C54.9888 47.2496 54.8956 47.9019 54.7092 48.5075L55.641 47.7621C56.0138 47.4825 56.107 46.9234 55.8274 46.5507Z" fill="#1B1B3A"/>
<path d="M40.2661 46.5508C39.9865 46.9701 40.0797 47.4826 40.4524 47.8088L41.2911 48.461C41.1047 47.8553 41.0115 47.2497 41.0115 46.5974V45.4326L40.2661 46.5508Z" fill="#1B1B3A"/>
<path d="M48.0002 55.4496C48.5148 55.4496 48.932 55.0324 48.932 54.5178C48.932 54.0031 48.5148 53.5859 48.0002 53.5859C47.4855 53.5859 47.0684 54.0031 47.0684 54.5178C47.0684 55.0324 47.4855 55.4496 48.0002 55.4496Z" fill="#1B1B3A"/>
<path d="M48.0002 58.245C48.5148 58.245 48.932 57.8278 48.932 57.3132C48.932 56.7985 48.5148 56.3813 48.0002 56.3813C47.4855 56.3813 47.0684 56.7985 47.0684 57.3132C47.0684 57.8278 47.4855 58.245 48.0002 58.245Z" fill="#1B1B3A"/>
</svg>
