<svg width="96" height="96" viewBox="0 0 96 96" fill="none" xmlns="http://www.w3.org/2000/svg">
<rect width="96" height="96" rx="24" fill="#FEF5DE"/>
<path fill-rule="evenodd" clip-rule="evenodd" d="M35.4353 39.5338L48.1345 29.2534L60.8338 39.5338L48.1345 49.8141L35.4353 39.5338Z" stroke="#1B1B3A" stroke-width="2" stroke-linecap="round" stroke-linejoin="round"/>
<path d="M34.2258 47.395L48.7392 59.4895L63.2527 47.395" stroke="#1B1B3A" stroke-width="2" stroke-linecap="round" stroke-linejoin="round"/>
<path d="M34.2258 55.8613L48.7392 67.9558L63.2527 55.8613" stroke="#1B1B3A" stroke-width="2" stroke-linecap="round" stroke-linejoin="round"/>
<path d="M60.8337 29.253L69.9046 20.1821" stroke="#1B1B3A" stroke-width="2" stroke-linecap="round" stroke-linejoin="round"/>
<path d="M64.4622 18.3682H71.7189V25.6249" stroke="#1B1B3A" stroke-width="2" stroke-linecap="round" stroke-linejoin="round"/>
<path d="M35.6215 29.0599L26.2396 20.3111" stroke="#1B1B3A" stroke-width="2" stroke-linecap="round" stroke-linejoin="round"/>
<path d="M24.6167 25.814L24.3634 18.5617L31.6157 18.3084" stroke="#1B1B3A" stroke-width="2" stroke-linecap="round" stroke-linejoin="round"/>
<path d="M60.8337 66.7465L69.9046 75.8174" stroke="#1B1B3A" stroke-width="2" stroke-linecap="round" stroke-linejoin="round"/>
<path d="M64.4622 77.6313H71.7189V70.3746" stroke="#1B1B3A" stroke-width="2" stroke-linecap="round" stroke-linejoin="round"/>
<path d="M35.6215 66.9396L26.2396 75.6884" stroke="#1B1B3A" stroke-width="2" stroke-linecap="round" stroke-linejoin="round"/>
<path d="M24.6167 70.1855L24.3634 77.4378L31.6157 77.6911" stroke="#1B1B3A" stroke-width="2" stroke-linecap="round" stroke-linejoin="round"/>
</svg>
