<svg width="96" height="96" viewBox="0 0 96 96" fill="none" xmlns="http://www.w3.org/2000/svg">
<rect width="96" height="96" rx="24" fill="#F0F0FF"/>
<path fill-rule="evenodd" clip-rule="evenodd" d="M39.6244 56.0151V76.8129C39.6244 77.2199 39.8686 77.5857 40.2444 77.7414C40.6202 77.8972 41.0523 77.8108 41.3397 77.5234L48.1136 70.7495L54.8884 77.5234C55.1758 77.8108 55.6079 77.8972 55.9837 77.7414C56.3586 77.5857 56.6037 77.2199 56.6037 76.8129V56.0151C57.8126 56.3417 59.136 56.1216 60.1911 55.3539C61.6382 54.3038 62.2632 52.4578 61.7648 50.7506C61.7517 50.6471 61.7246 50.5596 61.6844 50.4833C61.5457 49.9135 61.6613 49.3066 62.01 48.8272C62.3868 48.3087 62.9887 48.0012 63.6298 48.0012H63.6369C65.4667 48.0012 67.0896 46.8225 67.6563 45.0801C67.6563 45.0801 67.6563 45.0801 67.6563 45.0791C68.2211 43.3406 67.6021 41.4334 66.1249 40.3572L66.1159 40.3501C65.5974 39.9733 65.2909 39.3714 65.2909 38.7303C65.2909 38.0892 65.5974 37.4873 66.1159 37.1104L66.1249 37.1034C67.6021 36.0272 68.2211 34.1199 67.6563 32.3805C67.0896 30.638 65.4667 29.4593 63.6369 29.4593H63.6298C62.9887 29.4593 62.3868 29.1528 62.01 28.6343C62.01 28.6333 62.01 28.6333 62.01 28.6333C61.6613 28.154 61.5457 27.5471 61.6854 26.9773C61.7246 26.9009 61.7517 26.8145 61.7658 26.705C62.2632 25.0027 61.6382 23.1568 60.1911 22.1057C58.711 21.0305 56.7032 21.0305 55.222 22.1057L55.218 22.1097C54.6995 22.4865 54.0313 22.592 53.4213 22.3941C53.4213 22.3931 53.4213 22.3931 53.4203 22.3931C52.8144 22.1961 52.3371 21.7208 52.1371 21.1139L52.1331 21.1018C51.5673 19.3614 49.9434 18.1816 48.1136 18.1816C46.2837 18.1816 44.6598 19.3614 44.0931 21.1018L44.0901 21.1139C43.8901 21.7208 43.4128 22.1961 42.8058 22.3931C42.8058 22.3931 42.8058 22.3931 42.8058 22.3941C42.1959 22.592 41.5276 22.4865 41.0091 22.1097L41.0041 22.1057C39.5239 21.0305 37.5162 21.0305 36.035 22.1057C34.589 23.1568 33.964 25.0027 34.4624 26.709C34.4754 26.8135 34.5026 26.9009 34.5428 26.9773C34.6814 27.5471 34.5659 28.154 34.2172 28.6333C34.2172 28.6333 34.2172 28.6333 34.2162 28.6343C33.8404 29.1528 33.2374 29.4593 32.5963 29.4593H32.5903C30.7604 29.4593 29.1366 30.638 28.5708 32.3805H28.5698C28.0061 34.1199 28.6241 36.0272 30.1022 37.1034L30.1113 37.1104C30.6298 37.4873 30.9363 38.0892 30.9363 38.7303C30.9363 39.3714 30.6298 39.9733 30.1113 40.3501L30.1022 40.3572C28.6241 41.4334 28.0061 43.3406 28.5698 45.0791C28.5698 45.0801 28.5708 45.0801 28.5708 45.0801C29.1366 46.8225 30.7604 48.0012 32.5903 48.0012H32.5963C33.2374 48.0012 33.8404 48.3077 34.2162 48.8262C34.2172 48.8272 34.2172 48.8272 34.2172 48.8272C34.5659 49.3066 34.6814 49.9125 34.5418 50.4833C34.5026 50.5586 34.4754 50.6461 34.4614 50.7556C33.964 52.4578 34.589 54.3038 36.035 55.3539C37.0911 56.1216 38.4145 56.3417 39.6244 56.0151ZM54.594 55.0464C54.2152 54.9379 53.8062 54.9419 53.4213 55.0665C53.4213 55.0665 53.4213 55.0675 53.4203 55.0675C52.8144 55.2645 52.3371 55.7398 52.1371 56.3467L52.1331 56.3588C51.5673 58.0992 49.9434 59.2789 48.1136 59.2789C46.2837 59.2789 44.6598 58.0992 44.0931 56.3588L44.0901 56.3467C43.8901 55.7398 43.4128 55.2645 42.8058 55.0675V55.0665C42.421 54.9419 42.013 54.9379 41.6342 55.0464V74.3872L47.4031 68.6172C47.796 68.2253 48.4321 68.2253 48.824 68.6172L54.594 74.3872V55.0464ZM36.455 51.1254C36.8007 49.9356 36.5786 48.6494 35.8471 47.6425C35.0914 46.6025 33.8836 45.9865 32.5963 45.9865H32.5903C31.6327 45.9865 30.7835 45.3695 30.4861 44.457C30.1907 43.5466 30.5162 42.5478 31.291 41.9841L31.3 41.977C32.3371 41.2214 32.9511 40.0145 32.9511 38.7303C32.9511 37.4461 32.3371 36.2392 31.3 35.4835L31.291 35.4765C30.5162 34.9128 30.1907 33.9139 30.4861 33.0035C30.7835 32.0911 31.6327 31.4741 32.5903 31.4741H32.5963C33.8836 31.4741 35.0914 30.8581 35.8471 29.8181C36.5786 28.8112 36.8007 27.5249 36.455 26.3352C36.442 26.2317 36.4159 26.1493 36.3787 26.0769C36.1526 25.2037 36.4822 24.2722 37.2198 23.7366C37.9945 23.1728 39.0456 23.1728 39.8204 23.7366L39.8254 23.7406C40.8664 24.4953 42.2059 24.7073 43.4289 24.3094C44.6508 23.9124 45.6094 22.9538 46.0084 21.7309L46.0114 21.7198C46.3098 20.8114 47.1579 20.1964 48.1136 20.1964C49.0692 20.1964 49.9173 20.8114 50.2158 21.7198L50.2188 21.7309C50.6177 22.9538 51.5764 23.9124 52.7983 24.3094C54.0212 24.7073 55.3607 24.4953 56.4018 23.7406L56.4068 23.7366C57.1815 23.1728 58.2326 23.1728 59.0074 23.7366C59.745 24.2722 60.0746 25.2037 59.8485 26.0769C59.8113 26.1493 59.7852 26.2317 59.7721 26.3352C59.4264 27.5249 59.6485 28.8112 60.3801 29.8181C61.1357 30.8581 62.3436 31.4741 63.6298 31.4741H63.6369C64.5945 31.4741 65.4436 32.0911 65.74 33.0035C66.0365 33.9139 65.7109 34.9128 64.9362 35.4765L64.9271 35.4835C63.8901 36.2392 63.2761 37.4461 63.2761 38.7303C63.2761 40.0145 63.8901 41.2214 64.9271 41.977L64.9362 41.9841C65.7109 42.5478 66.0365 43.5466 65.74 44.457C65.4436 45.3695 64.5945 45.9865 63.6369 45.9865H63.6298C62.3436 45.9865 61.1357 46.6025 60.3801 47.6425C59.6485 48.6494 59.4264 49.9356 59.7721 51.1254C59.7852 51.2289 59.8113 51.3113 59.8485 51.3836C60.0746 52.2569 59.745 53.1884 59.0074 53.724C58.2326 54.2877 57.1815 54.2877 56.4068 53.724L56.4018 53.72C55.3607 52.9653 54.0212 52.7523 52.7983 53.1512C51.5764 53.5481 50.6177 54.5068 50.2188 55.7297L50.2158 55.7408C49.9173 56.6492 49.0692 57.2641 48.1136 57.2641C47.1579 57.2641 46.3098 56.6492 46.0114 55.7408L46.0084 55.7297C45.6094 54.5068 44.6508 53.5481 43.4289 53.1512C42.2059 52.7523 40.8664 52.9653 39.8254 53.72L39.8204 53.724C39.0456 54.2877 37.9945 54.2877 37.2198 53.724C36.4822 53.1884 36.1526 52.2569 36.3787 51.3836M52.1481 56.2703C52.128 56.3567 52.1069 56.4281 52.1069 56.4281C52.1069 56.4281 52.123 56.3829 52.1411 56.3166L52.1481 56.2703ZM44.079 56.2703L44.086 56.3166C44.1041 56.3829 44.1202 56.4281 44.1202 56.4281C44.1202 56.4281 44.0991 56.3567 44.079 56.2703ZM36.455 51.1254L36.3787 51.3836ZM59.7982 51.2108L59.8093 51.246C59.8585 51.3967 59.9419 51.5344 60.0545 51.6469C59.9681 51.5605 59.8977 51.4811 59.8485 51.3836L59.7721 51.1254C59.7651 51.0701 59.7611 51.0088 59.7611 50.9395C59.7611 51.0319 59.7731 51.1234 59.7982 51.2108ZM45.0859 34.3239V34.0827C45.0859 33.527 44.6357 33.0769 44.08 33.0769H39.0577C38.502 33.0769 38.0518 33.527 38.0518 34.0827V48.3188C38.0518 48.8745 38.502 49.3247 39.0577 49.3247H44.08C44.6357 49.3247 45.0859 48.8745 45.0859 48.3188V47.947H55.0934C56.2973 47.947 57.3805 47.2144 57.8297 46.097L60.3961 39.704C60.5358 39.3543 60.6082 38.9815 60.6082 38.6057V37.4038C60.6082 36.6221 60.2977 35.8724 59.745 35.3187C59.1923 34.7661 58.4417 34.4556 57.6609 34.4556H52.8465V28.572C52.8465 27.8184 52.5491 27.0969 52.0195 26.5643C51.4879 26.0297 50.7664 25.7302 50.0148 25.7302C49.2631 25.7302 48.5427 26.0297 48.0111 26.5643C47.4815 27.0969 47.1841 27.8184 47.1841 28.572V31.4821C47.1841 32.27 46.8705 33.0266 46.3128 33.5843C45.9672 33.93 45.5451 34.1822 45.0859 34.3239ZM43.0741 35.0886V47.3129H40.0635V35.0886H43.0741ZM45.0859 45.9362H55.0934C55.4763 45.9362 55.8209 45.7031 55.9636 45.3474C56.7093 43.4914 58.0879 40.0567 58.5301 38.9554C58.5753 38.8448 58.5984 38.7253 58.5984 38.6057V37.4038C58.5984 37.1546 58.4989 36.9165 58.3231 36.7406C58.1472 36.5648 57.9091 36.4653 57.6609 36.4653H51.8417C51.286 36.4653 50.8368 36.0161 50.8368 35.4604V28.572C50.8368 28.351 50.7494 28.1389 50.5936 27.9822C50.5936 27.9822 50.5936 27.9822 50.5936 27.9812C50.4399 27.8274 50.2318 27.74 50.0148 27.74C49.7987 27.74 49.5907 27.8274 49.437 27.9812C49.437 27.9822 49.437 27.9822 49.436 27.9822C49.2802 28.1389 49.1938 28.351 49.1938 28.572V31.4821C49.1938 32.8035 48.6693 34.0717 47.7347 35.0062C47.0082 35.7317 46.0817 36.2101 45.0859 36.3879V45.9362ZM36.3787 26.0769L36.455 26.3352C36.4621 26.3904 36.4661 26.4517 36.4661 26.5201C36.4661 26.4286 36.453 26.3372 36.4289 26.2488L36.4179 26.2146C36.3686 26.0629 36.2842 25.9262 36.1717 25.8126C36.2591 25.9001 36.3294 25.9795 36.3787 26.0769ZM59.7982 26.2488C59.7731 26.3372 59.7611 26.4286 59.7611 26.5201C59.7611 26.4517 59.7651 26.3904 59.7721 26.3352L59.8485 26.0769C59.8977 25.9795 59.9681 25.9001 60.0545 25.8126C59.9419 25.9262 59.8585 26.0629 59.8093 26.2146L59.7982 26.2488ZM52.1411 21.144C52.123 21.0777 52.1069 21.0325 52.1069 21.0325C52.1069 21.0325 52.128 21.1038 52.1481 21.1902L52.1411 21.144ZM44.079 21.1902C44.0991 21.1038 44.1202 21.0325 44.1202 21.0325C44.1202 21.0325 44.1041 21.0777 44.086 21.144L44.079 21.1902Z" fill="#1B1B3A"/>
</svg>
