<svg width="206" height="59" viewBox="0 0 206 59" fill="none" xmlns="http://www.w3.org/2000/svg">
<rect x="0.169922" width="205.29" height="58.72" rx="10" fill="white"/>
<path d="M60.2027 35.6598C59.0538 34.0765 58.4439 32.166 58.4627 30.2098C58.4546 28.3928 59.0255 26.6205 60.0927 25.1498C60.9261 24.0711 61.8939 23.1032 62.9727 22.2698C62.2185 21.3344 61.3365 20.5097 60.3527 19.8198C58.7675 18.7734 56.9018 18.2329 55.0027 18.2698C53.5189 18.3229 52.0519 18.6028 50.6527 19.0998C49.4987 19.5478 48.2863 19.8273 47.0527 19.9298C45.882 19.7961 44.7288 19.538 43.6127 19.1598C42.1679 18.7219 40.6717 18.4765 39.1627 18.4298C37.7793 18.4118 36.4112 18.7213 35.1703 19.3331C33.9294 19.9448 32.8508 20.8415 32.0227 21.9498C30.0469 24.5799 29.0433 27.8133 29.1827 31.0998C29.3026 35.4555 30.5797 39.7009 32.8827 43.3998C35.3694 47.6132 37.8794 49.7198 40.4127 49.7198C41.5612 49.6509 42.6869 49.3695 43.7327 48.8898C44.8622 48.4009 46.0728 48.1263 47.3027 48.0798C48.6046 48.1208 49.8899 48.3847 51.1027 48.8598C52.2297 49.297 53.4166 49.56 54.6227 49.6398C56.7694 49.6398 58.9227 48.0432 61.0827 44.8498C62.4075 42.9762 63.4487 40.9173 64.1727 38.7398C62.5392 38.1916 61.1397 37.1058 60.2027 35.6598V35.6598Z" fill="#1B1B3A"/>
<path d="M51.6137 16.76C52.6182 15.8105 53.415 14.663 53.9537 13.39C54.4046 12.3359 54.6523 11.2061 54.6837 10.06C54.6837 9.99 54.6837 9.91 54.6837 9.82C54.6837 9.73 54.6837 9.64 54.6837 9.58C54.6532 9.47841 54.6298 9.37483 54.6137 9.27C54.5993 9.17884 54.5793 9.08867 54.5537 9C51.6003 9.66667 49.5037 10.8733 48.2637 12.62C46.9667 14.4577 46.2683 16.6507 46.2637 18.9C47.1481 18.8408 48.0251 18.7002 48.8837 18.48C49.9128 18.1222 50.8466 17.5339 51.6137 16.76V16.76Z" fill="#1B1B3A"/>
<path d="M78.0923 20.3756H74.9143V11.6483H78.2331C79.232 11.6483 80.0869 11.8231 80.7975 12.1725C81.5082 12.5191 82.053 13.0177 82.4318 13.6682C82.8106 14.316 83 15.0915 83 15.9949C83 16.904 82.8089 17.6867 82.4268 18.343C82.0446 18.9964 81.4881 19.4992 80.7573 19.8515C80.0265 20.2009 79.1382 20.3756 78.0923 20.3756ZM76.1614 19.4381H78.0118C78.8633 19.4381 79.5689 19.2989 80.1288 19.0205C80.6886 18.7421 81.106 18.3458 81.3808 17.8316C81.6557 17.3174 81.7932 16.7052 81.7932 15.9949C81.7932 15.2904 81.6574 14.6839 81.3859 14.1753C81.1143 13.664 80.7087 13.2719 80.169 12.9992C79.6293 12.7236 78.9571 12.5858 78.1526 12.5858H76.1614V19.4381Z" fill="#656565"/>
<path d="M88.0686 20.512C87.3714 20.512 86.7596 20.3714 86.2333 20.0901C85.7103 19.8089 85.3013 19.4154 85.0063 18.9097C84.7147 18.404 84.5689 17.8131 84.5689 17.137C84.5689 16.4552 84.7147 15.86 85.0063 15.3515C85.3013 14.843 85.7103 14.4481 86.2333 14.1668C86.7596 13.8856 87.3714 13.7449 88.0686 13.7449C88.7659 13.7449 89.376 13.8856 89.899 14.1668C90.4253 14.4481 90.8342 14.843 91.1259 15.3515C91.4209 15.86 91.5684 16.4552 91.5684 17.137C91.5684 17.8131 91.4209 18.404 91.1259 18.9097C90.8342 19.4154 90.4253 19.8089 89.899 20.0901C89.376 20.3714 88.7659 20.512 88.0686 20.512ZM88.0686 19.6086C88.5983 19.6086 89.0341 19.4935 89.376 19.2634C89.7179 19.0333 89.971 18.7307 90.1353 18.3557C90.2996 17.9807 90.3817 17.5745 90.3817 17.137C90.3817 16.6995 90.2996 16.2918 90.1353 15.914C89.971 15.5361 89.7179 15.2307 89.376 14.9978C89.0341 14.7648 88.5983 14.6483 88.0686 14.6483C87.539 14.6483 87.1032 14.7648 86.7612 14.9978C86.4193 15.2307 86.1662 15.5361 86.0019 15.914C85.8377 16.2918 85.7556 16.6995 85.7556 17.137C85.7556 17.5745 85.8377 17.9807 86.0019 18.3557C86.1662 18.7307 86.4193 19.0333 86.7612 19.2634C87.1032 19.4935 87.539 19.6086 88.0686 19.6086Z" fill="#656565"/>
<path d="M94.867 20.3756L92.5137 13.8302H93.7608L95.4302 18.8415H95.5107L97.16 13.8302H98.4271L100.056 18.8245H100.137L101.806 13.8302H103.053L100.7 20.3756H99.5334L97.8439 15.3472H97.7232L96.0336 20.3756H94.867Z" fill="#656565"/>
<path d="M105.809 16.4381V20.3756H104.622V13.8302H105.769V14.8529H105.869C106.05 14.5205 106.325 14.2535 106.694 14.0518C107.063 13.8472 107.539 13.7449 108.122 13.7449C108.645 13.7449 109.102 13.8358 109.495 14.0177C109.887 14.1966 110.192 14.4694 110.41 14.8358C110.628 15.1995 110.737 15.6597 110.737 16.2165V20.3756H109.55V16.2847C109.55 15.7705 109.392 15.3699 109.077 15.083C108.762 14.7932 108.33 14.6483 107.78 14.6483C107.401 14.6483 107.063 14.718 106.764 14.8572C106.469 14.9964 106.236 15.1995 106.065 15.4665C105.894 15.7336 105.809 16.0574 105.809 16.4381Z" fill="#656565"/>
<path d="M114.092 11.6483V20.3756H112.905V11.6483H114.092Z" fill="#656565"/>
<path d="M119.403 20.512C118.706 20.512 118.094 20.3714 117.568 20.0901C117.045 19.8089 116.636 19.4154 116.341 18.9097C116.049 18.404 115.903 17.8131 115.903 17.137C115.903 16.4552 116.049 15.86 116.341 15.3515C116.636 14.843 117.045 14.4481 117.568 14.1668C118.094 13.8856 118.706 13.7449 119.403 13.7449C120.1 13.7449 120.711 13.8856 121.233 14.1668C121.76 14.4481 122.169 14.843 122.46 15.3515C122.755 15.86 122.903 16.4552 122.903 17.137C122.903 17.8131 122.755 18.404 122.46 18.9097C122.169 19.4154 121.76 19.8089 121.233 20.0901C120.711 20.3714 120.1 20.512 119.403 20.512ZM119.403 19.6086C119.933 19.6086 120.369 19.4935 120.711 19.2634C121.052 19.0333 121.306 18.7307 121.47 18.3557C121.634 17.9807 121.716 17.5745 121.716 17.137C121.716 16.6995 121.634 16.2918 121.47 15.914C121.306 15.5361 121.052 15.2307 120.711 14.9978C120.369 14.7648 119.933 14.6483 119.403 14.6483C118.873 14.6483 118.438 14.7648 118.096 14.9978C117.754 15.2307 117.501 15.5361 117.336 15.914C117.172 16.2918 117.09 16.6995 117.09 17.137C117.09 17.5745 117.172 17.9807 117.336 18.3557C117.501 18.7307 117.754 19.0333 118.096 19.2634C118.438 19.4935 118.873 19.6086 119.403 19.6086Z" fill="#656565"/>
<path d="M126.987 20.529C126.498 20.529 126.054 20.4509 125.655 20.2947C125.256 20.1356 124.939 19.9069 124.704 19.6086C124.47 19.3074 124.352 18.9438 124.352 18.5177C124.352 18.1427 124.44 17.8387 124.614 17.6057C124.788 17.3699 125.021 17.1853 125.313 17.0518C125.604 16.9182 125.926 16.8188 126.278 16.7535C126.634 16.6853 126.991 16.6313 127.349 16.5915C127.819 16.5404 128.199 16.502 128.491 16.4765C128.786 16.4481 129 16.4012 129.134 16.3358C129.272 16.2705 129.341 16.1569 129.341 15.9949V15.9608C129.341 15.5404 129.205 15.2137 128.933 14.9807C128.665 14.7478 128.258 14.6313 127.711 14.6313C127.145 14.6313 126.701 14.7364 126.379 14.9466C126.057 15.1569 125.831 15.3813 125.7 15.6199L124.574 15.279C124.775 14.8813 125.043 14.5716 125.378 14.3501C125.717 14.1256 126.085 13.9694 126.484 13.8813C126.887 13.7904 127.282 13.7449 127.671 13.7449C127.919 13.7449 128.204 13.7705 128.526 13.8216C128.851 13.8699 129.165 13.9708 129.466 14.1242C129.771 14.2776 130.024 14.5091 130.226 14.8188C130.427 15.1285 130.527 15.5432 130.527 16.0631V20.3756H129.341V19.4893H129.28C129.2 19.6313 129.066 19.7833 128.878 19.9452C128.69 20.1072 128.44 20.2449 128.129 20.3586C127.817 20.4722 127.436 20.529 126.987 20.529ZM127.168 19.6256C127.638 19.6256 128.033 19.5475 128.355 19.3912C128.68 19.235 128.925 19.0333 129.089 18.7861C129.257 18.539 129.341 18.279 129.341 18.0063V17.0858C129.29 17.137 129.18 17.1839 129.009 17.2265C128.841 17.2662 128.647 17.3018 128.425 17.333C128.207 17.3614 127.995 17.387 127.787 17.4097C127.582 17.4296 127.416 17.4466 127.289 17.4608C126.981 17.4949 126.692 17.5503 126.424 17.627C126.159 17.7009 125.945 17.8131 125.78 17.9637C125.62 18.1114 125.539 18.3131 125.539 18.5688C125.539 18.9182 125.692 19.1824 125.997 19.3614C126.305 19.5376 126.696 19.6256 127.168 19.6256Z" fill="#656565"/>
<path d="M135.61 20.512C134.966 20.512 134.398 20.3742 133.905 20.0986C133.412 19.8202 133.027 19.4282 132.749 18.9225C132.47 18.414 132.331 17.8131 132.331 17.1199C132.331 16.4324 132.47 15.8358 132.749 15.3302C133.027 14.8245 133.414 14.4339 133.91 14.1583C134.406 13.8827 134.979 13.7449 135.63 13.7449C136.133 13.7449 136.53 13.816 136.822 13.958C137.117 14.0972 137.341 14.2563 137.495 14.4353C137.653 14.6114 137.775 14.7563 137.862 14.8699H137.963V11.6483H139.15V20.3756H138.003V19.3699H137.862C137.775 19.4893 137.651 19.6398 137.49 19.8216C137.329 20.0006 137.1 20.1611 136.801 20.3032C136.503 20.4424 136.106 20.512 135.61 20.512ZM135.771 19.6086C136.247 19.6086 136.649 19.5035 136.977 19.2932C137.306 19.0802 137.556 18.7861 137.727 18.4111C137.898 18.0333 137.983 17.5972 137.983 17.1029C137.983 16.6143 137.899 16.1867 137.732 15.8202C137.564 15.4509 137.316 15.164 136.987 14.9594C136.659 14.752 136.253 14.6483 135.771 14.6483C135.268 14.6483 134.849 14.7577 134.514 14.9765C134.182 15.1924 133.932 15.4864 133.764 15.8586C133.6 16.2279 133.518 16.6427 133.518 17.1029C133.518 17.5688 133.602 17.9921 133.769 18.3728C133.94 18.7506 134.192 19.0518 134.524 19.2762C134.859 19.4978 135.274 19.6086 135.771 19.6086Z" fill="#656565"/>
<path d="M148.91 13.8302V14.6824H144.746V13.8302H148.91ZM145.993 20.3756V12.9268C145.993 12.5518 146.097 12.2393 146.305 11.9893C146.513 11.7393 146.783 11.5518 147.115 11.4268C147.447 11.3018 147.797 11.2393 148.166 11.2393C148.457 11.2393 148.695 11.2591 148.88 11.2989C149.064 11.3387 149.201 11.3756 149.292 11.4097L148.95 12.279C148.89 12.262 148.806 12.2407 148.699 12.2151C148.595 12.1895 148.457 12.1768 148.286 12.1768C147.894 12.1768 147.611 12.2606 147.437 12.4282C147.266 12.5958 147.18 12.8415 147.18 13.1654V20.3756H145.993Z" fill="#656565"/>
<path d="M150.573 20.3756V13.8302H151.719V14.8188H151.8C151.941 14.4949 152.196 14.2322 152.564 14.0305C152.933 13.8287 153.349 13.7279 153.811 13.7279C153.898 13.7279 154.007 13.7293 154.138 13.7322C154.269 13.735 154.368 13.7393 154.435 13.7449V14.7677C154.395 14.7591 154.302 14.7464 154.158 14.7293C154.017 14.7094 153.868 14.6995 153.711 14.6995C153.335 14.6995 153 14.7662 152.705 14.8998C152.413 15.0305 152.182 15.2123 152.011 15.4452C151.844 15.6753 151.76 15.9381 151.76 16.2336V20.3756H150.573Z" fill="#656565"/>
<path d="M158.744 20.512C158.047 20.512 157.435 20.3714 156.909 20.0901C156.386 19.8089 155.977 19.4154 155.682 18.9097C155.39 18.404 155.244 17.8131 155.244 17.137C155.244 16.4552 155.39 15.86 155.682 15.3515C155.977 14.843 156.386 14.4481 156.909 14.1668C157.435 13.8856 158.047 13.7449 158.744 13.7449C159.441 13.7449 160.052 13.8856 160.575 14.1668C161.101 14.4481 161.51 14.843 161.801 15.3515C162.096 15.86 162.244 16.4552 162.244 17.137C162.244 17.8131 162.096 18.404 161.801 18.9097C161.51 19.4154 161.101 19.8089 160.575 20.0901C160.052 20.3714 159.441 20.512 158.744 20.512ZM158.744 19.6086C159.274 19.6086 159.71 19.4935 160.052 19.2634C160.393 19.0333 160.647 18.7307 160.811 18.3557C160.975 17.9807 161.057 17.5745 161.057 17.137C161.057 16.6995 160.975 16.2918 160.811 15.914C160.647 15.5361 160.393 15.2307 160.052 14.9978C159.71 14.7648 159.274 14.6483 158.744 14.6483C158.215 14.6483 157.779 14.7648 157.437 14.9978C157.095 15.2307 156.842 15.5361 156.677 15.914C156.513 16.2918 156.431 16.6995 156.431 17.137C156.431 17.5745 156.513 17.9807 156.677 18.3557C156.842 18.7307 157.095 19.0333 157.437 19.2634C157.779 19.4935 158.215 19.6086 158.744 19.6086Z" fill="#656565"/>
<path d="M164.055 20.3756V13.8302H165.202V14.8529H165.302C165.463 14.5035 165.723 14.2322 166.082 14.039C166.441 13.843 166.871 13.7449 167.374 13.7449C167.884 13.7449 168.308 13.843 168.646 14.039C168.988 14.2322 169.255 14.5035 169.446 14.8529H169.526C169.724 14.5148 170.021 14.2464 170.416 14.0475C170.812 13.8458 171.286 13.7449 171.839 13.7449C172.53 13.7449 173.095 13.9282 173.534 14.2947C173.973 14.6583 174.193 15.2251 174.193 15.9949V20.3756H173.006V15.9949C173.006 15.512 172.85 15.1668 172.538 14.9594C172.227 14.752 171.86 14.6483 171.437 14.6483C170.894 14.6483 170.473 14.7876 170.175 15.066C169.877 15.3415 169.727 15.691 169.727 16.1143V20.3756H168.521V15.8927C168.521 15.5205 168.378 15.2208 168.093 14.9935C167.808 14.7634 167.441 14.6483 166.992 14.6483C166.684 14.6483 166.395 14.718 166.127 14.8572C165.862 14.9964 165.648 15.1895 165.483 15.4367C165.323 15.681 165.242 15.9637 165.242 16.2847V20.3756H164.055Z" fill="#656565"/>
<path d="M77.6724 43.7987H74.1726L79.5052 30.7078H83.714L89.0391 43.7987H85.5393L81.67 33.6993H81.5493L77.6724 43.7987ZM77.4536 38.6531H85.7203V40.8136H77.4536V38.6531Z" fill="#353535"/>
<path d="M90.838 47.4805V33.9805H94.0059V35.6297H94.1492C94.29 35.3655 94.4937 35.097 94.7602 34.8243C95.0317 34.5473 95.3837 34.3172 95.8161 34.1339C96.2536 33.9464 96.7967 33.8527 97.4453 33.8527C98.2901 33.8527 99.0695 34.0402 99.7836 34.4152C100.498 34.7859 101.068 35.3463 101.496 36.0963C101.923 36.842 102.137 37.7774 102.137 38.9024C102.137 39.9976 101.928 40.9223 101.511 41.6765C101.098 42.4265 100.535 42.9954 99.8213 43.3832C99.1123 43.7667 98.3178 43.9585 97.4378 43.9585C96.8143 43.9585 96.2838 43.8711 95.8463 43.6964C95.4139 43.5217 95.0594 43.3022 94.7828 43.038C94.5062 42.7696 94.295 42.499 94.1492 42.2263H94.0512V47.4805H90.838ZM93.9833 38.8896C93.9833 39.4734 94.0788 39.9826 94.2699 40.4173C94.461 40.852 94.7375 41.1907 95.0996 41.4336C95.4616 41.6723 95.9016 41.7916 96.4195 41.7916C96.9425 41.7916 97.385 41.6701 97.747 41.4272C98.1091 41.1801 98.3831 40.8392 98.5692 40.4045C98.7603 39.9656 98.8558 39.4606 98.8558 38.8896C98.8558 38.3228 98.7628 37.8243 98.5767 37.3939C98.3907 36.9635 98.1166 36.6268 97.7546 36.3839C97.3925 36.141 96.9475 36.0196 96.4195 36.0196C95.8966 36.0196 95.4541 36.1368 95.092 36.3711C94.735 36.6055 94.461 36.9379 94.2699 37.3683C94.0788 37.7987 93.9833 38.3058 93.9833 38.8896Z" fill="#353535"/>
<path d="M104.279 47.4805V33.9805H107.447V35.6297H107.59C107.731 35.3655 107.935 35.097 108.201 34.8243C108.473 34.5473 108.825 34.3172 109.257 34.1339C109.695 33.9464 110.238 33.8527 110.886 33.8527C111.731 33.8527 112.51 34.0402 113.224 34.4152C113.939 34.7859 114.509 35.3463 114.937 36.0963C115.364 36.842 115.578 37.7774 115.578 38.9024C115.578 39.9976 115.369 40.9223 114.952 41.6765C114.539 42.4265 113.976 42.9954 113.262 43.3832C112.553 43.7667 111.759 43.9585 110.879 43.9585C110.255 43.9585 109.725 43.8711 109.287 43.6964C108.855 43.5217 108.5 43.3022 108.224 43.038C107.947 42.7696 107.736 42.499 107.59 42.2263H107.492V47.4805H104.279ZM107.424 38.8896C107.424 39.4734 107.52 39.9826 107.711 40.4173C107.902 40.852 108.178 41.1907 108.541 41.4336C108.903 41.6723 109.343 41.7916 109.86 41.7916C110.383 41.7916 110.826 41.6701 111.188 41.4272C111.55 41.1801 111.824 40.8392 112.01 40.4045C112.201 39.9656 112.297 39.4606 112.297 38.8896C112.297 38.3228 112.204 37.8243 112.018 37.3939C111.832 36.9635 111.558 36.6268 111.196 36.3839C110.833 36.141 110.388 36.0196 109.86 36.0196C109.338 36.0196 108.895 36.1368 108.533 36.3711C108.176 36.6055 107.902 36.9379 107.711 37.3683C107.52 37.7987 107.424 38.3058 107.424 38.8896Z" fill="#353535"/>
<path d="M131.076 34.4727C131.016 33.9571 130.757 33.5565 130.299 33.271C129.841 32.9855 129.22 32.8427 128.436 32.8427C127.903 32.8427 127.453 32.9066 127.086 33.0345C126.719 33.1581 126.437 33.3307 126.241 33.5522C126.05 33.7738 125.955 34.0253 125.955 34.3065C125.944 34.5409 126.002 34.7454 126.128 34.9201C126.259 35.0949 126.437 35.2461 126.664 35.374C126.89 35.4976 127.151 35.6062 127.448 35.7C127.745 35.7895 128.061 35.8662 128.398 35.9301L129.786 36.2113C130.46 36.3392 131.078 36.5096 131.642 36.7227C132.205 36.9358 132.693 37.1978 133.105 37.5089C133.517 37.82 133.837 38.1865 134.063 38.6084C134.294 39.0302 134.412 39.5139 134.417 40.0593C134.412 40.8605 134.171 41.5551 133.693 42.1432C133.221 42.727 132.537 43.1808 131.642 43.5047C130.752 43.8243 129.678 43.9841 128.421 43.9841C127.174 43.9841 126.088 43.8221 125.163 43.4983C124.242 43.1744 123.523 42.695 123.005 42.0601C122.492 41.4209 122.223 40.6304 122.198 39.6886H125.359C125.394 40.1275 125.542 40.494 125.804 40.788C126.07 41.0778 126.425 41.2973 126.867 41.4464C127.315 41.5913 127.82 41.6638 128.383 41.6638C128.936 41.6638 129.417 41.5956 129.824 41.4592C130.236 41.3228 130.556 41.1332 130.782 40.8903C131.008 40.6474 131.121 40.3683 131.121 40.053C131.121 39.7589 131.018 39.5118 130.812 39.3115C130.611 39.1112 130.314 38.9407 129.922 38.8001C129.535 38.6595 129.06 38.5317 128.496 38.4166L126.814 38.0586C125.512 37.7902 124.484 37.3704 123.729 36.7994C122.975 36.2284 122.601 35.4592 122.606 34.4919C122.601 33.6993 122.849 33.0068 123.352 32.4145C123.86 31.8221 124.557 31.3598 125.442 31.0274C126.327 30.695 127.332 30.5288 128.459 30.5288C129.605 30.5288 130.606 30.695 131.461 31.0274C132.32 31.3598 132.989 31.8221 133.467 32.4145C133.945 33.0068 134.191 33.6929 134.206 34.4727H131.076Z" fill="#353535"/>
<path d="M142.716 33.9805V36.026H135.739V33.9805H142.716ZM137.323 31.6282H140.536V40.7816C140.536 41.0331 140.582 41.2291 140.672 41.3697C140.763 41.5061 140.888 41.602 141.049 41.6574C141.215 41.7128 141.406 41.7405 141.622 41.7405C141.773 41.7405 141.924 41.7298 142.075 41.7085C142.226 41.6829 142.341 41.6638 142.422 41.651L142.927 43.6772C142.766 43.7199 142.54 43.7689 142.248 43.8243C141.957 43.8839 141.602 43.9201 141.185 43.9329C140.411 43.9585 139.732 43.8711 139.148 43.6709C138.57 43.4706 138.12 43.1595 137.798 42.7376C137.477 42.3157 137.318 41.7831 137.323 41.1396V31.6282Z" fill="#353535"/>
<path d="M149.919 43.9905C148.748 43.9905 147.734 43.7795 146.88 43.3576C146.03 42.9315 145.374 42.3392 144.911 41.5807C144.448 40.8179 144.217 39.9336 144.217 38.928C144.217 37.9138 144.448 37.0274 144.911 36.2689C145.374 35.5061 146.03 34.9138 146.88 34.4919C147.734 34.0657 148.748 33.8527 149.919 33.8527C151.091 33.8527 152.102 34.0657 152.951 34.4919C153.806 34.9138 154.465 35.5061 154.928 36.2689C155.39 37.0274 155.622 37.9138 155.622 38.928C155.622 39.9336 155.39 40.8179 154.928 41.5807C154.465 42.3392 153.806 42.9315 152.951 43.3576C152.102 43.7795 151.091 43.9905 149.919 43.9905ZM149.934 41.8811C150.467 41.8811 150.912 41.7532 151.269 41.4976C151.626 41.2376 151.895 40.8839 152.076 40.4365C152.263 39.989 152.356 39.4798 152.356 38.9088C152.356 38.3378 152.263 37.8285 152.076 37.3811C151.895 36.9336 151.626 36.5799 151.269 36.32C150.912 36.0601 150.467 35.9301 149.934 35.9301C149.396 35.9301 148.944 36.0601 148.577 36.32C148.215 36.5799 147.941 36.9336 147.755 37.3811C147.574 37.8285 147.483 38.3378 147.483 38.9088C147.483 39.4798 147.574 39.989 147.755 40.4365C147.941 40.8839 148.215 41.2376 148.577 41.4976C148.944 41.7532 149.396 41.8811 149.934 41.8811Z" fill="#353535"/>
<path d="M157.711 43.7987V33.9805H160.826V35.6936H160.947C161.158 35.0842 161.512 34.624 162.01 34.3129C162.508 33.9976 163.081 33.8399 163.73 33.8399C163.891 33.8399 164.064 33.8484 164.25 33.8655C164.436 33.8825 164.6 33.9059 164.741 33.9358V36.352C164.59 36.3136 164.381 36.2795 164.115 36.2497C163.848 36.2199 163.604 36.2049 163.383 36.2049C162.91 36.2049 162.488 36.2923 162.116 36.467C161.749 36.6375 161.457 36.8761 161.241 37.1829C161.03 37.4897 160.924 37.8434 160.924 38.244V43.7987H157.711Z" fill="#353535"/>
<path d="M171.142 43.9905C169.951 43.9905 168.925 43.7859 168.065 43.3768C167.21 42.9635 166.551 42.3797 166.089 41.6254C165.626 40.8669 165.395 39.9699 165.395 38.9343C165.395 37.9244 165.626 37.038 166.089 36.2753C166.551 35.5125 167.203 34.918 168.042 34.4919C168.887 34.0657 169.878 33.8527 171.014 33.8527C171.778 33.8527 172.49 33.9571 173.149 34.1659C173.812 34.3704 174.391 34.6794 174.883 35.0927C175.381 35.5061 175.768 36.026 176.045 36.6524C176.322 37.2745 176.46 38.0032 176.46 38.8385V39.5863H166.677V37.8988H173.435C173.435 37.5068 173.335 37.1595 173.134 36.8569C172.932 36.5544 172.653 36.3179 172.296 36.1474C171.944 35.9727 171.535 35.8853 171.067 35.8853C170.579 35.8853 170.147 35.9812 169.77 36.173C169.397 36.3605 169.106 36.614 168.895 36.9336C168.683 37.249 168.575 37.6005 168.57 37.9883V39.5927C168.57 40.0785 168.676 40.4983 168.887 40.852C169.103 41.2057 169.408 41.4784 169.8 41.6701C170.192 41.8619 170.657 41.9578 171.195 41.9578C171.552 41.9578 171.879 41.9152 172.176 41.8299C172.472 41.7447 172.726 41.6169 172.937 41.4464C173.149 41.276 173.31 41.0672 173.42 40.82L176.392 40.9862C176.241 41.5913 175.932 42.1197 175.464 42.5714C175.002 43.0189 174.403 43.3683 173.669 43.6197C172.94 43.8669 172.098 43.9905 171.142 43.9905Z" fill="#353535"/>
</svg>
