<svg width="202" height="40" viewBox="0 0 202 40" fill="none" xmlns="http://www.w3.org/2000/svg">
<path fill-rule="evenodd" clip-rule="evenodd" d="M18.4551 19.2739V40.0002C22.97 37.3612 27.485 34.7067 32 32.0677C32 29.9071 32 27.7465 32 25.5859C30.7686 26.3113 29.5373 27.0212 28.3211 27.7465V29.9071C26.2537 31.1109 24.2014 32.3146 22.1339 33.5338V21.4499L28.3211 17.8232V19.9838C29.5525 19.2584 30.7838 18.5485 32 17.8232C32 15.107 32 12.3754 32 9.65918C31.9544 10.724 31.2399 11.7735 29.9021 12.5914L18.4551 19.2739Z" fill="#FF8A00"/>
<path fill-rule="evenodd" clip-rule="evenodd" d="M28.914 10.9862C31.6807 9.36573 31.8176 6.71128 29.218 5.07539C27.7739 4.16485 26.5273 3.8099 24.8247 3.65557C24.475 2.39007 23.4565 1.69559 22.4076 1.07828C19.504 -0.418712 15.0651 -0.356981 12.2983 1.26347L0.912109 7.91504C6.4456 11.1559 11.9791 14.4123 17.5278 17.6532L28.914 10.9862ZM23.0613 7.20513C24.6879 6.24829 27.181 7.68355 25.524 8.65582L17.543 13.332L15.0955 11.8967L23.0613 7.20513ZM16.266 3.22345C16.9501 2.82219 18.0598 2.82219 18.7287 3.22345C19.428 3.64014 19.3824 4.28832 18.7287 4.67414C16.0684 6.23286 13.3777 7.77615 10.7173 9.33487L8.31543 7.93048C10.9606 6.37176 13.6057 4.78217 16.266 3.22345Z" fill="#FF8A00"/>
<path fill-rule="evenodd" clip-rule="evenodd" d="M16.6157 23.595C16.6157 22.1597 16.6157 20.7245 16.6157 19.2738C11.0822 16.0329 5.54869 12.7765 0 9.53564V13.8569C2.15867 15.076 4.31734 16.3261 6.46081 17.5916V34.0122L10.1397 36.1728V19.7676C12.3135 21.0486 14.4722 22.3295 16.6157 23.595Z" fill="#FF8A00"/>
<path d="M48 29.3191V4.87307H53.1208V25.3713H65.1452V29.3191H48Z" fill="white"/>
<path d="M76.7515 29.6987C73.3882 29.6987 70.9226 28.8889 69.3548 27.2693C67.7869 25.6244 67.003 23.3088 67.003 20.3227C67.003 17.3365 67.7869 15.0336 69.3548 13.414C70.9479 11.7691 73.4135 10.9466 76.7515 10.9466C80.1148 10.9466 82.5803 11.7691 84.1482 13.414C85.7413 15.0336 86.5379 17.3365 86.5379 20.3227C86.5379 23.3088 85.754 25.6244 84.1861 27.2693C82.6183 28.8889 80.1401 29.6987 76.7515 29.6987ZM76.7515 25.3333C78.3952 25.3333 79.5711 24.9664 80.2791 24.2325C80.9872 23.4733 81.3412 22.17 81.3412 20.3227C81.3412 18.4753 80.9872 17.1847 80.2791 16.4508C79.5711 15.6916 78.3952 15.312 76.7515 15.312C75.1331 15.312 73.9698 15.6916 73.2617 16.4508C72.5537 17.1847 72.1997 18.4753 72.1997 20.3227C72.1997 22.17 72.5537 23.4733 73.2617 24.2325C73.9698 24.9664 75.1331 25.3333 76.7515 25.3333Z" fill="white"/>
<path d="M98.4435 36C97.1032 36 95.725 35.9114 94.3089 35.7343C92.9181 35.5571 91.7422 35.3041 90.7812 34.9751V31.1412C91.7928 31.4701 92.9813 31.7232 94.3468 31.9004C95.7124 32.1028 96.9894 32.204 98.178 32.204C99.9228 32.204 101.187 32.1028 101.971 31.9004C102.755 31.7232 103.147 31.3942 103.147 30.9134C103.147 30.5085 102.97 30.2301 102.616 30.0783C102.287 29.9265 101.579 29.8505 100.492 29.8505H95.5986C92.387 29.8505 90.7812 28.6611 90.7812 26.2823C90.7812 25.5484 90.9835 24.8778 91.3882 24.2705C91.7928 23.6631 92.4376 23.1823 93.3227 22.828C91.2744 21.7904 90.2502 20.0443 90.2502 17.5896C90.2502 15.2614 90.9709 13.5785 92.4123 12.5409C93.8537 11.4781 95.9906 10.9466 98.8228 10.9466C99.4044 10.9466 100.037 10.9972 100.719 11.0985C101.427 11.1744 101.959 11.2503 102.313 11.3262H109.064L108.951 14.5528H106.106C106.89 15.2867 107.282 16.3116 107.282 17.6275C107.282 19.4749 106.7 20.9553 105.537 22.0688C104.374 23.157 102.654 23.7011 100.378 23.7011C99.9734 23.7011 99.5814 23.6884 99.2021 23.6631C98.8481 23.6125 98.4814 23.5619 98.1021 23.5113C97.3435 23.6125 96.6986 23.7896 96.1676 24.0427C95.6618 24.2958 95.4089 24.6374 95.4089 25.0676C95.4089 25.6497 95.9273 25.9407 96.9641 25.9407H102.047C103.868 25.9407 105.271 26.3582 106.257 27.1934C107.244 28.0032 107.737 29.1926 107.737 30.7616C107.737 32.533 106.94 33.849 105.347 34.7094C103.754 35.5698 101.453 36 98.4435 36ZM98.8607 20.8161C100.378 20.8161 101.427 20.5631 102.009 20.0569C102.616 19.5255 102.919 18.6398 102.919 17.3998C102.919 16.1597 102.616 15.2614 102.009 14.7046C101.427 14.1479 100.378 13.8695 98.8607 13.8695C97.4193 13.8695 96.3825 14.1479 95.7503 14.7046C95.1181 15.2361 94.802 16.1344 94.802 17.3998C94.802 18.5639 95.0928 19.4243 95.6745 19.981C96.2814 20.5378 97.3435 20.8161 98.8607 20.8161Z" fill="white"/>
<path d="M113.204 8.02372V4H118.78V8.02372H113.204ZM113.621 29.3191V15.1222H110.928L111.383 11.3262H118.742V29.3191H113.621Z" fill="white"/>
<path d="M130.195 29.6987C128.855 29.6987 127.578 29.5975 126.364 29.395C125.15 29.2179 124.177 28.9901 123.444 28.7117V24.4603C124.329 24.8146 125.328 25.0929 126.44 25.2954C127.553 25.4725 128.577 25.5611 129.513 25.5611C130.777 25.5611 131.662 25.4852 132.168 25.3333C132.699 25.1815 132.964 24.8399 132.964 24.3084C132.964 23.7011 132.56 23.2582 131.751 22.9798C130.967 22.7015 129.791 22.3092 128.223 21.8031C126.579 21.2463 125.315 20.5757 124.43 19.7912C123.545 19.0067 123.102 17.8426 123.102 16.2989C123.102 14.5781 123.722 13.2622 124.961 12.3511C126.225 11.4148 128.248 10.9466 131.03 10.9466C132.143 10.9466 133.192 11.0352 134.178 11.2123C135.165 11.3642 135.999 11.554 136.682 11.7817V15.9953C135.999 15.6663 135.215 15.4259 134.33 15.274C133.445 15.0969 132.623 15.0083 131.864 15.0083C130.777 15.0083 129.905 15.0842 129.247 15.2361C128.615 15.3879 128.299 15.7169 128.299 16.223C128.299 16.7798 128.64 17.172 129.323 17.3998C130.031 17.6275 131.118 17.9692 132.585 18.4247C134.027 18.8549 135.152 19.3231 135.961 19.8292C136.77 20.3353 137.339 20.9427 137.668 21.6512C137.997 22.3345 138.161 23.1949 138.161 24.2325C138.161 27.8766 135.506 29.6987 130.195 29.6987Z" fill="white"/>
<path d="M149.05 29.6987C146.976 29.6987 145.433 29.1546 144.422 28.0664C143.436 26.9783 142.943 25.4978 142.943 23.6251V15.274H140.401V11.3262H142.943V7.45433L148.063 5.93594V11.3262H152.615L152.312 15.274H148.063V23.2835C148.063 24.2705 148.291 24.9537 148.746 25.3333C149.201 25.6876 149.909 25.8648 150.87 25.8648C151.578 25.8648 152.312 25.7382 153.07 25.4852V29.0154C152.514 29.2432 151.907 29.4077 151.25 29.5089C150.592 29.6354 149.859 29.6987 149.05 29.6987Z" fill="white"/>
<path d="M157.709 8.02372V4H163.285V8.02372H157.709ZM158.126 29.3191V15.1222H155.433L155.888 11.3262H163.247V29.3191H158.126Z" fill="white"/>
<path d="M177.545 29.6987C174.334 29.6987 171.868 28.9015 170.148 27.3072C168.454 25.7129 167.607 23.3847 167.607 20.3227C167.607 17.1594 168.517 14.8059 170.338 13.2622C172.184 11.7185 174.637 10.9466 177.697 10.9466C178.961 10.9466 180.049 11.0352 180.959 11.2123C181.869 11.3895 182.754 11.6805 183.614 12.0854V15.7675C182.982 15.4638 182.249 15.2234 181.414 15.0463C180.58 14.8691 179.682 14.7805 178.721 14.7805C176.799 14.7805 175.332 15.1854 174.321 15.9953C173.309 16.7798 172.804 18.2222 172.804 20.3227C172.804 22.2459 173.259 23.6505 174.169 24.5362C175.105 25.4219 176.609 25.8648 178.683 25.8648C179.568 25.8648 180.428 25.7762 181.262 25.5991C182.122 25.4219 182.919 25.1562 183.652 24.8019V28.5979C181.958 29.3318 179.922 29.6987 177.545 29.6987Z" fill="white"/>
<path d="M193.98 29.6987C192.64 29.6987 191.363 29.5975 190.149 29.395C188.935 29.2179 187.962 28.9901 187.228 28.7117V24.4603C188.113 24.8146 189.112 25.0929 190.225 25.2954C191.338 25.4725 192.362 25.5611 193.298 25.5611C194.562 25.5611 195.447 25.4852 195.953 25.3333C196.484 25.1815 196.749 24.8399 196.749 24.3084C196.749 23.7011 196.345 23.2582 195.535 22.9798C194.752 22.7015 193.576 22.3092 192.008 21.8031C190.364 21.2463 189.1 20.5757 188.215 19.7912C187.33 19.0067 186.887 17.8426 186.887 16.2989C186.887 14.5781 187.507 13.2622 188.746 12.3511C190.01 11.4148 192.033 10.9466 194.815 10.9466C195.927 10.9466 196.977 11.0352 197.963 11.2123C198.949 11.3642 199.784 11.554 200.467 11.7817V15.9953C199.784 15.6663 199 15.4259 198.115 15.274C197.23 15.0969 196.408 15.0083 195.649 15.0083C194.562 15.0083 193.689 15.0842 193.032 15.2361C192.4 15.3879 192.084 15.7169 192.084 16.223C192.084 16.7798 192.425 17.172 193.108 17.3998C193.816 17.6275 194.903 17.9692 196.37 18.4247C197.811 18.8549 198.937 19.3231 199.746 19.8292C200.555 20.3353 201.124 20.9427 201.453 21.6512C201.782 22.3345 201.946 23.1949 201.946 24.2325C201.946 27.8766 199.291 29.6987 193.98 29.6987Z" fill="white"/>
</svg>
