<svg width="207" height="59" viewBox="0 0 207 59" fill="none" xmlns="http://www.w3.org/2000/svg">
<rect width="206.816" height="58.6861" rx="10" fill="white"/>
<path d="M29.0108 29.3434C29.0108 24.2034 29.0108 19.0634 29.0108 13.9234C29.0108 9.7334 32.3108 7.7534 35.9208 9.8334C44.7741 14.9134 53.5908 20.0567 62.3708 25.2634C66.2208 27.5434 66.0308 31.3434 62.0508 33.6834C55.3375 37.6301 48.6075 41.5601 41.8608 45.4734L36.4108 48.6534C35.6037 49.1687 34.6975 49.5094 33.7508 49.6534C31.0508 49.9634 29.0508 48.0434 29.0208 44.9834C28.9808 39.7834 29.0108 34.5634 29.0108 29.3434ZM31.1108 29.2434C31.1108 34.3034 31.1108 39.3634 31.1108 44.4234C31.1108 45.5634 31.1908 46.7334 32.3408 47.3334C33.4908 47.9334 34.5508 47.2334 35.5308 46.6334C35.8072 46.4281 36.0472 46.178 36.2408 45.8934C40.5141 40.5934 44.7841 35.2967 49.0508 30.0034C49.1414 29.9264 49.2142 29.8306 49.2642 29.7227C49.3141 29.6148 49.34 29.4973 49.34 29.3784C49.34 29.2595 49.3141 29.142 49.2642 29.0341C49.2142 28.9261 49.1414 28.8304 49.0508 28.7534C44.7408 23.4334 40.4708 18.0934 36.1708 12.7534C35.1708 11.5634 33.5308 10.8634 32.5608 11.2834C31.1308 11.8934 31.1008 13.2234 31.1008 14.5134C31.1008 19.4267 31.1041 24.3367 31.1108 29.2434ZM63.0108 29.4134C62.9613 28.9515 62.7973 28.5093 62.5336 28.1269C62.2699 27.7444 61.9149 27.4339 61.5008 27.2234C60.0008 26.3034 58.5008 25.4634 56.9608 24.5434C56.8926 24.4809 56.8109 24.435 56.7221 24.4094C56.6332 24.3837 56.5397 24.3789 56.4487 24.3953C56.3576 24.4118 56.2717 24.4491 56.1975 24.5042C56.1232 24.5594 56.0628 24.631 56.0208 24.7134C54.9108 26.1334 53.7808 27.5534 52.6308 28.9434C52.5709 28.9965 52.5234 29.062 52.4914 29.1353C52.4595 29.2086 52.4439 29.2881 52.4458 29.368C52.4477 29.448 52.4671 29.5266 52.5025 29.5984C52.5379 29.6701 52.5885 29.7332 52.6508 29.7834C53.8008 31.1734 54.9208 32.5934 56.0408 34.0134C56.2808 34.3234 56.4908 34.4734 56.8908 34.2334C58.5208 33.2334 60.1808 32.2834 61.8008 31.2334C62.1243 31.0381 62.4006 30.7737 62.6098 30.459C62.819 30.1443 62.9559 29.7873 63.0108 29.4134V29.4134ZM41.4308 15.8834C44.4308 19.6234 47.4308 23.2834 50.3408 26.9734C50.7608 27.5034 50.9808 27.6734 51.4608 26.9734C52.2708 25.8534 53.1508 24.7834 54.0608 23.7434C54.5108 23.2234 54.4408 23.0234 53.8508 22.6834C50.0808 20.5234 46.3308 18.3134 42.5708 16.1334C42.2608 15.9834 41.9608 15.6734 41.4308 15.8834ZM41.3408 42.9734C41.5849 42.9719 41.8274 42.9349 42.0608 42.8634C46.0608 40.5334 50.0608 38.1734 54.1308 35.8634C54.5508 35.6234 54.4308 35.4534 54.2108 35.1734C53.1208 33.7834 52.0508 32.4934 50.9108 31.0834L41.3408 42.9734Z" fill="#1B1B3A"/>
<path d="M78.3281 20.359H75.1501V11.6317H78.4689C79.4679 11.6317 80.3227 11.8065 81.0334 12.1559C81.7441 12.5025 82.2888 13.0011 82.6676 13.6516C83.0464 14.2994 83.2358 15.0749 83.2358 15.9783C83.2358 16.8874 83.0447 17.6701 82.6626 18.3264C82.2804 18.9798 81.724 19.4826 80.9932 19.8349C80.2624 20.1843 79.374 20.359 78.3281 20.359ZM76.3972 19.4215H78.2476C79.0991 19.4215 79.8048 19.2823 80.3646 19.0039C80.9244 18.7255 81.3418 18.3292 81.6167 17.815C81.8916 17.3008 82.029 16.6886 82.029 15.9783C82.029 15.2738 81.8932 14.6673 81.6217 14.1587C81.3502 13.6474 80.9445 13.2553 80.4048 12.9826C79.8651 12.707 79.193 12.5692 78.3884 12.5692H76.3972V19.4215Z" fill="#656565"/>
<path d="M88.3045 20.4954C87.6072 20.4954 86.9954 20.3548 86.4691 20.0735C85.9461 19.7923 85.5372 19.3988 85.2422 18.8931C84.9505 18.3874 84.8047 17.7965 84.8047 17.1204C84.8047 16.4386 84.9505 15.8434 85.2422 15.3349C85.5372 14.8263 85.9461 14.4315 86.4691 14.1502C86.9954 13.869 87.6072 13.7283 88.3045 13.7283C89.0017 13.7283 89.6119 13.869 90.1348 14.1502C90.6611 14.4315 91.0701 14.8263 91.3617 15.3349C91.6567 15.8434 91.8042 16.4386 91.8042 17.1204C91.8042 17.7965 91.6567 18.3874 91.3617 18.8931C91.0701 19.3988 90.6611 19.7923 90.1348 20.0735C89.6119 20.3548 89.0017 20.4954 88.3045 20.4954ZM88.3045 19.592C88.8341 19.592 89.2699 19.4769 89.6119 19.2468C89.9538 19.0167 90.2069 18.7141 90.3711 18.3391C90.5354 17.9641 90.6175 17.5579 90.6175 17.1204C90.6175 16.6829 90.5354 16.2752 90.3711 15.8974C90.2069 15.5195 89.9538 15.2141 89.6119 14.9812C89.2699 14.7482 88.8341 14.6317 88.3045 14.6317C87.7748 14.6317 87.339 14.7482 86.9971 14.9812C86.6551 15.2141 86.402 15.5195 86.2378 15.8974C86.0735 16.2752 85.9914 16.6829 85.9914 17.1204C85.9914 17.5579 86.0735 17.9641 86.2378 18.3391C86.402 18.7141 86.6551 19.0167 86.9971 19.2468C87.339 19.4769 87.7748 19.592 88.3045 19.592Z" fill="#656565"/>
<path d="M95.1029 20.359L92.7496 13.8136H93.9966L95.6661 18.8249H95.7465L97.3958 13.8136H98.663L100.292 18.8079H100.373L102.042 13.8136H103.289L100.936 20.359H99.7692L98.0797 15.3306H97.959L96.2695 20.359H95.1029Z" fill="#656565"/>
<path d="M106.045 16.4215V20.359H104.858V13.8136H106.004V14.8363H106.105C106.286 14.5039 106.561 14.2369 106.93 14.0352C107.298 13.8306 107.774 13.7283 108.358 13.7283C108.881 13.7283 109.338 13.8192 109.731 14.0011C110.123 14.18 110.428 14.4528 110.646 14.8192C110.864 15.1829 110.973 15.6431 110.973 16.1999V20.359H109.786V16.2681C109.786 15.7539 109.628 15.3533 109.313 15.0664C108.998 14.7766 108.566 14.6317 108.016 14.6317C107.637 14.6317 107.298 14.7013 107 14.8406C106.705 14.9798 106.472 15.1829 106.301 15.4499C106.13 15.717 106.045 16.0408 106.045 16.4215Z" fill="#656565"/>
<path d="M114.328 11.6317V20.359H113.141V11.6317H114.328Z" fill="#656565"/>
<path d="M119.639 20.4954C118.942 20.4954 118.33 20.3548 117.804 20.0735C117.281 19.7923 116.872 19.3988 116.577 18.8931C116.285 18.3874 116.139 17.7965 116.139 17.1204C116.139 16.4386 116.285 15.8434 116.577 15.3349C116.872 14.8263 117.281 14.4315 117.804 14.1502C118.33 13.869 118.942 13.7283 119.639 13.7283C120.336 13.7283 120.946 13.869 121.469 14.1502C121.996 14.4315 122.405 14.8263 122.696 15.3349C122.991 15.8434 123.139 16.4386 123.139 17.1204C123.139 17.7965 122.991 18.3874 122.696 18.8931C122.405 19.3988 121.996 19.7923 121.469 20.0735C120.946 20.3548 120.336 20.4954 119.639 20.4954ZM119.639 19.592C120.169 19.592 120.604 19.4769 120.946 19.2468C121.288 19.0167 121.541 18.7141 121.706 18.3391C121.87 17.9641 121.952 17.5579 121.952 17.1204C121.952 16.6829 121.87 16.2752 121.706 15.8974C121.541 15.5195 121.288 15.2141 120.946 14.9812C120.604 14.7482 120.169 14.6317 119.639 14.6317C119.109 14.6317 118.674 14.7482 118.332 14.9812C117.99 15.2141 117.737 15.5195 117.572 15.8974C117.408 16.2752 117.326 16.6829 117.326 17.1204C117.326 17.5579 117.408 17.9641 117.572 18.3391C117.737 18.7141 117.99 19.0167 118.332 19.2468C118.674 19.4769 119.109 19.592 119.639 19.592Z" fill="#656565"/>
<path d="M127.223 20.5124C126.734 20.5124 126.289 20.4343 125.891 20.2781C125.492 20.119 125.175 19.8903 124.94 19.592C124.706 19.2908 124.588 18.9272 124.588 18.5011C124.588 18.1261 124.675 17.8221 124.85 17.5891C125.024 17.3533 125.257 17.1687 125.549 17.0352C125.84 16.9016 126.162 16.8022 126.514 16.7369C126.869 16.6687 127.226 16.6147 127.585 16.5749C128.054 16.5238 128.435 16.4854 128.727 16.4599C129.022 16.4315 129.236 16.3846 129.37 16.3192C129.508 16.2539 129.576 16.1403 129.576 15.9783V15.9442C129.576 15.5238 129.441 15.1971 129.169 14.9641C128.901 14.7312 128.494 14.6147 127.947 14.6147C127.381 14.6147 126.936 14.7198 126.615 14.93C126.293 15.1403 126.067 15.3647 125.936 15.6033L124.809 15.2624C125.011 14.8647 125.279 14.555 125.614 14.3335C125.953 14.109 126.321 13.9528 126.72 13.8647C127.123 13.7738 127.518 13.7283 127.907 13.7283C128.155 13.7283 128.44 13.7539 128.762 13.805C129.087 13.8533 129.4 13.9542 129.702 14.1076C130.007 14.261 130.26 14.4925 130.461 14.8022C130.663 15.1119 130.763 15.5266 130.763 16.0465V20.359H129.576V19.4727H129.516C129.436 19.6147 129.301 19.7667 129.114 19.9286C128.926 20.0906 128.676 20.2283 128.365 20.342C128.053 20.4556 127.672 20.5124 127.223 20.5124ZM127.404 19.609C127.873 19.609 128.269 19.5309 128.591 19.3746C128.916 19.2184 129.161 19.0167 129.325 18.7695C129.493 18.5224 129.576 18.2624 129.576 17.9897V17.0692C129.526 17.1204 129.415 17.1673 129.245 17.2099C129.077 17.2496 128.882 17.2852 128.661 17.3164C128.443 17.3448 128.23 17.3704 128.023 17.3931C127.818 17.413 127.652 17.43 127.525 17.4442C127.216 17.4783 126.928 17.5337 126.66 17.6104C126.395 17.6843 126.181 17.7965 126.016 17.9471C125.855 18.0948 125.775 18.2965 125.775 18.5522C125.775 18.9016 125.927 19.1658 126.232 19.3448C126.541 19.521 126.931 19.609 127.404 19.609Z" fill="#656565"/>
<path d="M135.846 20.4954C135.202 20.4954 134.634 20.3576 134.141 20.082C133.648 19.8036 133.263 19.4116 132.984 18.9059C132.706 18.3974 132.567 17.7965 132.567 17.1033C132.567 16.4158 132.706 15.8192 132.984 15.3136C133.263 14.8079 133.65 14.4173 134.146 14.1417C134.642 13.8661 135.215 13.7283 135.866 13.7283C136.369 13.7283 136.766 13.7994 137.057 13.9414C137.352 14.0806 137.577 14.2397 137.731 14.4187C137.889 14.5948 138.011 14.7397 138.098 14.8533H138.199V11.6317H139.386V20.359H138.239V19.3533H138.098C138.011 19.4727 137.887 19.6232 137.726 19.805C137.565 19.984 137.336 20.1445 137.037 20.2866C136.739 20.4258 136.342 20.4954 135.846 20.4954ZM136.006 19.592C136.482 19.592 136.885 19.4869 137.213 19.2766C137.542 19.0636 137.792 18.7695 137.963 18.3945C138.133 18.0167 138.219 17.5806 138.219 17.0863C138.219 16.5977 138.135 16.1701 137.968 15.8036C137.8 15.4343 137.552 15.1474 137.223 14.9428C136.895 14.7354 136.489 14.6317 136.006 14.6317C135.504 14.6317 135.085 14.7411 134.749 14.9599C134.417 15.1758 134.168 15.4698 134 15.842C133.836 16.2113 133.754 16.6261 133.754 17.0863C133.754 17.5522 133.838 17.9755 134.005 18.3562C134.176 18.734 134.428 19.0352 134.759 19.2596C135.095 19.4812 135.51 19.592 136.006 19.592Z" fill="#656565"/>
<path d="M149.146 13.8136V14.6658H144.982V13.8136H149.146ZM146.229 20.359V12.9102C146.229 12.5352 146.333 12.2227 146.541 11.9727C146.749 11.7227 147.019 11.5352 147.351 11.4102C147.682 11.2852 148.033 11.2227 148.401 11.2227C148.693 11.2227 148.931 11.2425 149.116 11.2823C149.3 11.3221 149.437 11.359 149.528 11.3931L149.186 12.2624C149.126 12.2454 149.042 12.2241 148.935 12.1985C148.831 12.1729 148.693 12.1602 148.522 12.1602C148.13 12.1602 147.847 12.244 147.672 12.4116C147.501 12.5792 147.416 12.8249 147.416 13.1488V20.359H146.229Z" fill="#656565"/>
<path d="M150.809 20.359V13.8136H151.955V14.8022H152.036C152.177 14.4783 152.431 14.2156 152.8 14.0138C153.169 13.8121 153.585 13.7113 154.047 13.7113C154.134 13.7113 154.243 13.7127 154.374 13.7156C154.505 13.7184 154.604 13.7227 154.671 13.7283V14.7511C154.63 14.7425 154.538 14.7298 154.394 14.7127C154.253 14.6928 154.104 14.6829 153.947 14.6829C153.571 14.6829 153.236 14.7496 152.941 14.8832C152.649 15.0138 152.418 15.1957 152.247 15.4286C152.079 15.6587 151.996 15.9215 151.996 16.217V20.359H150.809Z" fill="#656565"/>
<path d="M158.98 20.4954C158.283 20.4954 157.671 20.3548 157.145 20.0735C156.622 19.7923 156.213 19.3988 155.918 18.8931C155.626 18.3874 155.48 17.7965 155.48 17.1204C155.48 16.4386 155.626 15.8434 155.918 15.3349C156.213 14.8263 156.622 14.4315 157.145 14.1502C157.671 13.869 158.283 13.7283 158.98 13.7283C159.677 13.7283 160.287 13.869 160.81 14.1502C161.337 14.4315 161.746 14.8263 162.037 15.3349C162.332 15.8434 162.48 16.4386 162.48 17.1204C162.48 17.7965 162.332 18.3874 162.037 18.8931C161.746 19.3988 161.337 19.7923 160.81 20.0735C160.287 20.3548 159.677 20.4954 158.98 20.4954ZM158.98 19.592C159.51 19.592 159.945 19.4769 160.287 19.2468C160.629 19.0167 160.882 18.7141 161.047 18.3391C161.211 17.9641 161.293 17.5579 161.293 17.1204C161.293 16.6829 161.211 16.2752 161.047 15.8974C160.882 15.5195 160.629 15.2141 160.287 14.9812C159.945 14.7482 159.51 14.6317 158.98 14.6317C158.45 14.6317 158.015 14.7482 157.673 14.9812C157.331 15.2141 157.078 15.5195 156.913 15.8974C156.749 16.2752 156.667 16.6829 156.667 17.1204C156.667 17.5579 156.749 17.9641 156.913 18.3391C157.078 18.7141 157.331 19.0167 157.673 19.2468C158.015 19.4769 158.45 19.592 158.98 19.592Z" fill="#656565"/>
<path d="M164.291 20.359V13.8136H165.438V14.8363H165.538C165.699 14.4869 165.959 14.2156 166.318 14.0224C166.676 13.8263 167.107 13.7283 167.61 13.7283C168.12 13.7283 168.544 13.8263 168.882 14.0224C169.224 14.2156 169.491 14.4869 169.682 14.8363H169.762C169.96 14.4982 170.257 14.2298 170.652 14.0309C171.048 13.8292 171.522 13.7283 172.075 13.7283C172.766 13.7283 173.331 13.9116 173.77 14.2781C174.209 14.6417 174.429 15.2085 174.429 15.9783V20.359H173.242V15.9783C173.242 15.4954 173.086 15.1502 172.774 14.9428C172.462 14.7354 172.095 14.6317 171.673 14.6317C171.13 14.6317 170.709 14.771 170.411 15.0494C170.112 15.3249 169.963 15.6744 169.963 16.0977V20.359H168.756V15.8761C168.756 15.5039 168.614 15.2042 168.329 14.9769C168.044 14.7468 167.677 14.6317 167.228 14.6317C166.919 14.6317 166.631 14.7013 166.363 14.8406C166.098 14.9798 165.884 15.1729 165.719 15.4201C165.558 15.6644 165.478 15.9471 165.478 16.2681V20.359H164.291Z" fill="#656565"/>
<path d="M75.2456 43.7821V30.6912H81.34C82.5117 30.6912 83.5098 30.8808 84.3345 31.2601C85.1591 31.6351 85.7877 32.1571 86.2201 32.8261C86.6576 33.4909 86.8763 34.2579 86.8763 35.1273C86.8763 35.9966 86.6551 36.7636 86.2126 37.4284C85.7701 38.0932 85.1289 38.6109 84.2892 38.9817C83.4545 39.3524 82.4438 39.5378 81.2571 39.5378H77.3726V37.3197H80.7291C81.3576 37.3197 81.8756 37.2281 82.2829 37.0449C82.6952 36.8574 83.0019 36.5996 83.2031 36.2714C83.4092 35.9391 83.5123 35.5577 83.5123 35.1273C83.5123 34.6926 83.4092 34.3133 83.2031 33.9895C83.0019 33.6614 82.6952 33.4078 82.2829 33.2288C81.8705 33.0456 81.3476 32.954 80.714 32.954H78.5116V43.7821H75.2456Z" fill="#353535"/>
<path d="M92.1505 30.6912V43.7821H88.9373V30.6912H92.1505Z" fill="#353535"/>
<path d="M98.0281 43.9675C97.2889 43.9675 96.6302 43.8588 96.0519 43.6415C95.4736 43.4199 95.0161 43.0939 94.6791 42.6635C94.3473 42.2288 94.1813 41.6876 94.1813 41.0399C94.1813 40.4945 94.2995 40.0364 94.5358 39.6656C94.7722 39.2949 95.094 38.9966 95.5013 38.7707C95.9086 38.5449 96.3712 38.3744 96.8891 38.2594C97.4121 38.1443 97.9602 38.0633 98.5334 38.0165C99.2072 37.9568 99.7503 37.9014 100.163 37.8503C100.575 37.7949 100.874 37.7139 101.06 37.6074C101.246 37.5008 101.339 37.3432 101.339 37.1344V37.096C101.339 36.6912 101.188 36.378 100.887 36.1564C100.59 35.9348 100.168 35.824 99.6196 35.824C99.0413 35.824 98.5812 35.9327 98.2393 36.15C97.8973 36.3631 97.6711 36.6315 97.5604 36.9554L94.5886 36.7508C94.7395 36.1543 95.0362 35.6386 95.4787 35.204C95.9212 34.765 96.4919 34.4284 97.1908 34.194C97.8948 33.9554 98.7094 33.8361 99.6346 33.8361C100.278 33.8361 100.894 33.9 101.483 34.0278C102.076 34.1557 102.601 34.3538 103.059 34.6223C103.522 34.8908 103.886 35.2359 104.153 35.6578C104.419 36.0754 104.552 36.5761 104.552 37.1599V43.7821H101.505V42.4206H101.415C101.229 42.7274 100.98 42.998 100.668 43.2324C100.356 43.4625 99.9816 43.6436 99.5441 43.7757C99.1067 43.9035 98.6013 43.9675 98.0281 43.9675ZM98.9483 42.0882C99.4209 42.0882 99.8383 42.0094 100.2 41.8517C100.562 41.6898 100.846 41.4724 101.053 41.1997C101.259 40.927 101.362 40.618 101.362 40.2729V39.231C101.261 39.2864 101.123 39.3375 100.947 39.3844C100.776 39.427 100.583 39.4675 100.366 39.5058C100.15 39.5399 99.9338 39.5719 99.7176 39.6017C99.5014 39.6273 99.3053 39.6507 99.1293 39.672C98.7522 39.7189 98.4228 39.7935 98.1412 39.8957C97.8596 39.998 97.6409 40.1365 97.485 40.3112C97.3291 40.4817 97.2512 40.6947 97.2512 40.9504C97.2512 41.3212 97.4096 41.6045 97.7264 41.8006C98.0482 41.9923 98.4555 42.0882 98.9483 42.0882Z" fill="#353535"/>
<path d="M108.614 47.4639C108.207 47.4639 107.825 47.4362 107.468 47.3808C107.116 47.3297 106.824 47.2636 106.593 47.1827L107.317 45.15C107.694 45.248 108.033 45.3013 108.335 45.3098C108.642 45.3183 108.906 45.2587 109.127 45.1308C109.353 45.003 109.537 44.7856 109.678 44.4788L109.866 44.0633L105.71 33.9639H109.089L111.488 41.1741H111.609L114.03 33.9639H117.431L112.929 44.8432C112.712 45.3716 112.418 45.8318 112.046 46.2239C111.679 46.6202 111.214 46.9248 110.651 47.1379C110.087 47.3552 109.409 47.4639 108.614 47.4639Z" fill="#353535"/>
<path d="M132.432 34.4561C132.371 33.9405 132.113 33.5399 131.655 33.2544C131.197 32.9689 130.576 32.8261 129.792 32.8261C129.259 32.8261 128.809 32.89 128.442 33.0179C128.075 33.1415 127.793 33.3141 127.597 33.5356C127.406 33.7572 127.31 34.0087 127.31 34.2899C127.3 34.5243 127.358 34.7288 127.484 34.9035C127.615 35.0783 127.793 35.2295 128.019 35.3574C128.246 35.481 128.507 35.5896 128.804 35.6834C129.1 35.7729 129.417 35.8496 129.754 35.9135L131.142 36.1947C131.816 36.3226 132.434 36.493 132.998 36.7061C133.561 36.9192 134.048 37.1812 134.461 37.4923C134.873 37.8034 135.192 38.1699 135.419 38.5918C135.65 39.0136 135.768 39.4973 135.773 40.0427C135.768 40.8439 135.527 41.5385 135.049 42.1266C134.576 42.7104 133.893 43.1642 132.998 43.4881C132.107 43.8077 131.034 43.9675 129.777 43.9675C128.53 43.9675 127.444 43.8055 126.518 43.4817C125.598 43.1578 124.879 42.6784 124.361 42.0435C123.848 41.4043 123.579 40.6138 123.554 39.672H126.715C126.75 40.1109 126.898 40.4774 127.16 40.7714C127.426 41.0612 127.781 41.2807 128.223 41.4298C128.671 41.5747 129.176 41.6472 129.739 41.6472C130.292 41.6472 130.772 41.579 131.18 41.4426C131.592 41.3062 131.911 41.1166 132.138 40.8737C132.364 40.6308 132.477 40.3517 132.477 40.0364C132.477 39.7423 132.374 39.4952 132.168 39.2949C131.967 39.0946 131.67 38.9241 131.278 38.7835C130.891 38.6429 130.415 38.515 129.852 38.4L128.17 38.042C126.868 37.7736 125.84 37.3538 125.085 36.7828C124.331 36.2118 123.956 35.4426 123.961 34.4753C123.956 33.6827 124.205 32.9902 124.708 32.3979C125.216 31.8055 125.912 31.3432 126.797 31.0108C127.682 30.6784 128.688 30.5122 129.815 30.5122C130.961 30.5122 131.962 30.6784 132.816 31.0108C133.676 31.3432 134.345 31.8055 134.823 32.3979C135.301 32.9902 135.547 33.6763 135.562 34.4561H132.432Z" fill="#353535"/>
<path d="M144.072 33.9639V36.0094H137.095V33.9639H144.072ZM138.679 31.6116H141.892V40.765C141.892 41.0165 141.937 41.2125 142.028 41.3531C142.118 41.4895 142.244 41.5854 142.405 41.6408C142.571 41.6962 142.762 41.7239 142.978 41.7239C143.129 41.7239 143.28 41.7132 143.431 41.6919C143.582 41.6663 143.697 41.6472 143.778 41.6344L144.283 43.6606C144.122 43.7033 143.896 43.7523 143.604 43.8077C143.313 43.8673 142.958 43.9035 142.541 43.9163C141.766 43.9419 141.088 43.8545 140.504 43.6543C139.926 43.454 139.476 43.1429 139.154 42.721C138.832 42.2991 138.674 41.7665 138.679 41.123V31.6116Z" fill="#353535"/>
<path d="M151.275 43.9739C150.104 43.9739 149.09 43.7629 148.235 43.341C147.386 42.9149 146.729 42.3226 146.267 41.5641C145.804 40.8013 145.573 39.917 145.573 38.9114C145.573 37.8972 145.804 37.0108 146.267 36.2523C146.729 35.4895 147.386 34.8972 148.235 34.4753C149.09 34.0491 150.104 33.8361 151.275 33.8361C152.447 33.8361 153.457 34.0491 154.307 34.4753C155.162 34.8972 155.821 35.4895 156.283 36.2523C156.746 37.0108 156.977 37.8972 156.977 38.9114C156.977 39.917 156.746 40.8013 156.283 41.5641C155.821 42.3226 155.162 42.9149 154.307 43.341C153.457 43.7629 152.447 43.9739 151.275 43.9739ZM151.29 41.8645C151.823 41.8645 152.268 41.7366 152.625 41.481C152.982 41.221 153.251 40.8673 153.432 40.4199C153.618 39.9724 153.711 39.4632 153.711 38.8922C153.711 38.3212 153.618 37.8119 153.432 37.3645C153.251 36.917 152.982 36.5633 152.625 36.3034C152.268 36.0435 151.823 35.9135 151.29 35.9135C150.752 35.9135 150.3 36.0435 149.933 36.3034C149.571 36.5633 149.296 36.917 149.11 37.3645C148.929 37.8119 148.839 38.3212 148.839 38.8922C148.839 39.4632 148.929 39.9724 149.11 40.4199C149.296 40.8673 149.571 41.221 149.933 41.481C150.3 41.7366 150.752 41.8645 151.29 41.8645Z" fill="#353535"/>
<path d="M159.067 43.7821V33.9639H162.182V35.677H162.302C162.514 35.0676 162.868 34.6074 163.366 34.2963C163.864 33.981 164.437 33.8233 165.086 33.8233C165.247 33.8233 165.42 33.8318 165.606 33.8489C165.792 33.8659 165.956 33.8893 166.096 33.9192V36.3354C165.946 36.297 165.737 36.2629 165.47 36.2331C165.204 36.2033 164.96 36.1883 164.739 36.1883C164.266 36.1883 163.844 36.2757 163.472 36.4504C163.104 36.6209 162.813 36.8595 162.597 37.1663C162.385 37.4731 162.28 37.8268 162.28 38.2274V43.7821H159.067Z" fill="#353535"/>
<path d="M172.498 43.9739C171.306 43.9739 170.281 43.7693 169.421 43.3602C168.566 42.9469 167.907 42.3631 167.445 41.6088C166.982 40.8503 166.751 39.9533 166.751 38.9177C166.751 37.9078 166.982 37.0214 167.445 36.2587C167.907 35.4959 168.558 34.9014 169.398 34.4753C170.243 34.0491 171.234 33.8361 172.37 33.8361C173.134 33.8361 173.846 33.9405 174.505 34.1493C175.168 34.3538 175.747 34.6628 176.239 35.0761C176.737 35.4895 177.124 36.0094 177.401 36.6358C177.677 37.2579 177.816 37.9866 177.816 38.8219V39.5697H168.033V37.8822H174.791C174.791 37.4902 174.691 37.1429 174.489 36.8403C174.288 36.5378 174.009 36.3013 173.652 36.1308C173.3 35.9561 172.89 35.8687 172.423 35.8687C171.935 35.8687 171.503 35.9646 171.125 36.1564C170.753 36.3439 170.462 36.5974 170.25 36.917C170.039 37.2324 169.931 37.5839 169.926 37.9717V39.5761C169.926 40.0619 170.032 40.4817 170.243 40.8354C170.459 41.1891 170.763 41.4618 171.156 41.6535C171.548 41.8453 172.013 41.9412 172.551 41.9412C172.908 41.9412 173.235 41.8986 173.532 41.8133C173.828 41.7281 174.082 41.6003 174.293 41.4298C174.505 41.2594 174.665 41.0506 174.776 40.8034L177.748 40.9696C177.597 41.5747 177.288 42.1031 176.82 42.5548C176.357 43.0023 175.759 43.3517 175.025 43.6031C174.296 43.8503 173.454 43.9739 172.498 43.9739Z" fill="#353535"/>
</svg>
